<?xml version="1.0" standalone="no"?>
<!DOCTYPE svg PUBLIC "-//W3C//DTD SVG 20010904//EN"
 "http://www.w3.org/TR/2001/REC-SVG-20010904/DTD/svg10.dtd">
<svg version="1.0" xmlns="http://www.w3.org/2000/svg"
 width="508.000000pt" height="508.000000pt" viewBox="0 0 508.000000 508.000000"
 preserveAspectRatio="xMidYMid meet">
<metadata>
Created by potrace 1.11, written by Peter Selinger 2001-2013
</metadata>
<g transform="translate(0.000000,508.000000) scale(0.100000,-0.100000)"
fill="#000000" stroke="none">
<path d="M140 2560 l0 -2400 2400 0 2400 0 0 2400 0 2400 -2400 0 -2400 0 0
-2400z m4260 0 l0 -1860 -1860 0 -1860 0 0 1860 0 1860 1860 0 1860 0 0 -1860z"/>
<path d="M2450 3349 c-322 -19 -604 -262 -690 -594 -18 -71 -20 -108 -20 -326
1 -174 5 -265 15 -307 55 -233 211 -434 419 -539 156 -79 180 -81 726 -89
l440 -5 0 270 0 271 -387 1 c-437 0 -470 2 -522 26 -56 27 -126 102 -138 149
-15 59 -17 373 -3 426 16 56 58 113 116 155 l48 33 443 0 443 0 0 270 0 271
-392 -3 c-216 -2 -440 -6 -498 -9z"/>
</g>
</svg>
